<?xml version="1.0" encoding="iso-8859-1"?>
<!-- Uploaded to: SVG Repo, www.svgrepo.com, Generator: SVG Repo Mixer Tools -->
<svg height="800px" width="800px" version="1.1" id="Layer_1" xmlns="http://www.w3.org/2000/svg" xmlns:xlink="http://www.w3.org/1999/xlink" 
	 viewBox="0 0 512.001 512.001" xml:space="preserve">
<path style="fill:#C7CFE2;" d="M67.014,139.997v51.119c0,46.185,37.44,83.625,83.625,83.625H419.99
	c46.185,0,83.625-37.44,83.625-83.625v-51.119H67.014z"/>
<path style="fill:#FF6465;" d="M445.431,170.637H125.198c-12.166,0-22.028,9.863-22.028,22.028l0,0
	c0,12.166,9.863,22.028,22.028,22.028h320.233c12.166,0,22.028-9.863,22.028-22.028l0,0
	C467.459,180.5,457.597,170.637,445.431,170.637z"/>
<path style="opacity:0.1;enable-background:new    ;" d="M67.014,139.997v51.119c0,8.19,1.198,16.097,3.393,23.578h51.462
	c31.244,0,56.661-25.418,56.661-56.661v-18.036H67.014V139.997z"/>
<path style="fill:#5B5D6E;" d="M224.206,402.127c-96.753,0-175.467-78.714-175.467-175.468v-66.096
	c0-10.805,8.759-19.564,19.564-19.564s19.564,8.759,19.564,19.564v66.096c0,75.178,61.161,136.339,136.338,136.339
	c10.805,0,19.564,8.759,19.564,19.564C243.771,393.368,235.011,402.127,224.206,402.127z"/>
<path style="opacity:0.1;enable-background:new    ;" d="M87.868,214.694v-54.13c0-10.805-8.759-19.564-19.564-19.564
	s-19.564,8.759-19.564,19.564v54.13L87.868,214.694L87.868,214.694z"/>
<path style="fill:#707287;" d="M121.869,93.194H37.097c-15.857,0-28.713,12.855-28.713,28.713v36.126
	c0,15.857,12.855,28.713,28.713,28.713h84.772c15.857,0,28.713-12.855,28.713-28.713v-36.126
	C150.582,106.049,137.727,93.194,121.869,93.194z"/>
<circle style="fill:#FF6465;" cx="69.16" cy="142.205" r="20.594"/>
<path style="opacity:0.1;enable-background:new    ;" d="M224.206,362.999c-14.658,0-28.776-2.334-42.018-6.635
	c-3.595,8.007-5.612,16.869-5.612,26.198c0,4.586,0.493,9.059,1.411,13.374c14.732,4.027,30.227,6.19,46.22,6.19
	c10.805,0,19.564-8.759,19.564-19.564C243.771,371.757,235.011,362.999,224.206,362.999z"/>
<path style="fill:#707287;" d="M269.132,346.319H240.77c-20.017,0-36.245,16.227-36.245,36.245l0,0
	c0,20.017,16.227,36.245,36.245,36.245h28.361c20.017,0,36.245-16.227,36.245-36.245l0,0
	C305.376,362.546,289.149,346.319,269.132,346.319z"/>
<path style="fill:#83869E;" d="M269.13,346.319h-28.361c-20.018,0-36.245,16.227-36.245,36.244l0,0c0,2.293,0.222,4.532,0.629,6.708
	c3.147-16.811,17.891-29.536,35.615-29.536h28.361c17.724,0,32.468,12.726,35.615,29.536c0.407-2.174,0.629-4.415,0.629-6.708l0,0
	C305.376,362.546,289.149,346.319,269.13,346.319z"/>
<circle cx="110.041" cy="119.131" r="9.858"/>
<path d="M69.16,113.227c-15.979,0-28.979,13-28.979,28.979s13,28.979,28.979,28.979s28.98-13,28.98-28.979
	S85.139,113.227,69.16,113.227z M69.16,154.415c-6.731,0-12.209-5.477-12.209-12.209c0-6.732,5.477-12.209,12.209-12.209
	c6.732,0,12.21,5.477,12.21,12.209C81.371,148.938,75.893,154.415,69.16,154.415z"/>
<path d="M503.615,131.613H158.967v-9.705c0-20.455-16.642-37.097-37.098-37.097H37.097C16.642,84.809,0,101.451,0,121.907v36.126
	c0,20.455,16.642,37.097,37.097,37.097h3.258v31.53c0,53.697,23.474,104.597,64.404,139.652c8.125,6.959,19.174-5.657,10.91-12.735
	c-37.207-31.864-58.545-78.123-58.545-126.916v-31.531h22.359c0,18.01-0.939,36.232,1.773,54.097
	c0.017,0.107,0.028,0.215,0.045,0.322c0.002,0.016,0.009,0.031,0.011,0.047c4.429,27.625,16.81,53.482,35.951,74.478
	c21.53,23.615,49.938,39.319,80.962,44.968c-0.331-0.06-1.514,6.404-1.595,6.957c-0.433,2.921-0.584,5.887-0.434,8.836
	c0.115,2.283,0.402,4.52,0.849,6.7c-19.448-3.176-38.006-9.756-55.325-19.632c-9.287-5.296-17.742,9.187-8.308,14.567
	c22.28,12.704,46.423,20.443,71.819,23.05c8.159,10.729,21.05,17.672,35.539,17.672h28.361c24.608,0,44.629-20.02,44.629-44.629
	c0-24.608-20.02-44.629-44.629-44.629H240.77c-13.49,0-25.591,6.025-33.782,15.514c-29.648-4.008-56.966-18.335-77.331-40.672
	c-11.385-12.488-20.065-26.922-25.721-42.465c14.048,8.275,30.186,12.815,46.704,12.815c0,0,27.645,0,27.731,0
	c10.712,0,10.845-16.769,0-16.769h-27.731c-20.179,0-38.957-7.8-53.162-22.024c-0.002-0.016-0.004-0.032-0.007-0.048
	c-1.931-13.948-1.219-28.245-1.219-42.297c3.946,12.223,15.428,21.091,28.946,21.091c0,0,245.73,0,246.255,0
	c10.805,0,10.83-16.769,0.001-16.769H125.199c-6.682,0-12.257-4.828-13.421-11.18c6.651,0,13.383,0.447,19.877-1.306
	c8.437-2.276,15.892-7.585,20.815-14.803h292.962c7.523,0,13.644,6.121,13.644,13.644c0,7.523-6.121,13.644-13.644,13.644
	c0,0-40.35,0-40.439,0c-10.793,0-10.832,16.769,0,16.769h40.439c16.769,0,30.413-13.644,30.413-30.413s-13.644-30.413-30.413-30.413
	c0,0-286.695,0-286.711,0c0.561-0.01,0.082-13.87,0.247-13.87h336.264v42.734c0,41.487-33.752,75.241-75.241,75.241
	c0,0-207.579,0-208.08,0c-10.747,0-10.851,16.769-0.001,16.769h208.081c50.734,0,92.01-41.276,92.01-92.01v-51.119
	C512,135.367,508.247,131.613,503.615,131.613z M212.972,380.717c0.987-14.435,13.318-26.014,27.797-26.014h28.361
	c15.362,0,27.86,12.498,27.86,27.859c0,15.362-12.498,27.86-27.859,27.86c0,0-28.346,0-28.361,0
	C224.972,410.423,211.892,396.503,212.972,380.717z M142.197,158.032c0,3.443-0.868,6.687-2.385,9.532
	c-0.045,0.084-0.088,0.169-0.134,0.253c-3.111,5.641-8.824,9.648-15.511,10.405c-0.14,0.016-0.279,0.031-0.42,0.045
	c-0.619,0.057-86.651,0.095-86.651,0.095c-11.209-0.001-20.328-9.12-20.328-20.329v-36.126c0-11.209,9.119-20.328,20.328-20.328
	h84.771c11.209,0,20.329,9.119,20.329,20.328V158.032z"/>
</svg>