<?xml version="1.0" encoding="utf-8"?>
<!-- Generator: Adobe Illustrator 25.0.0, SVG Export Plug-In . SVG Version: 6.00 Build 0)  -->
<svg version="1.1" id="Layer_1" xmlns="http://www.w3.org/2000/svg" xmlns:xlink="http://www.w3.org/1999/xlink" x="0px" y="0px"
	 viewBox="0 0 239.7 190" style="enable-background:new 0 0 239.7 190;" xml:space="preserve">
<style type="text/css">
	.st0{fill-rule:evenodd;clip-rule:evenodd;fill:#0D022B;}
</style>
<path class="st0" d="M158.3,56.4c-0.5-0.5-0.8-1-0.8-1.7c0-0.7,0.3-1.2,0.8-1.7c1-0.9,2.6-0.9,3.7,0c0.5,0.5,0.8,1,0.8,1.7
	c0,0.7-0.3,1.2-0.8,1.7c-0.5,0.4-1.2,0.7-1.8,0.7C159.5,57.2,158.8,57,158.3,56.4z"/>
<path class="st0" d="M151.9,63.3c-0.4-0.5-0.7-1-0.7-1.7s0.3-1.2,0.7-1.7c0.9-0.9,2.5-0.9,3.4,0c0.4,0.5,0.7,1,0.7,1.7
	s-0.3,1.2-0.7,1.7c-0.5,0.4-1,0.7-1.7,0.7S152.4,63.7,151.9,63.3z"/>
<path class="st0" d="M144.9,69.9c-0.4-0.4-0.7-1-0.7-1.7c0-0.7,0.3-1.2,0.7-1.7c0.9-0.9,2.5-0.9,3.4,0c0.4,0.4,0.7,1,0.7,1.7
	c0,0.7-0.3,1.2-0.7,1.7c-0.5,0.5-1,0.7-1.7,0.7S145.3,70.3,144.9,69.9z"/>
<path class="st0" d="M138.2,76.6c-0.5-0.4-0.8-1-0.8-1.7c0-0.7,0.3-1.2,0.8-1.7c1-0.9,2.6-0.9,3.7,0c0.5,0.4,0.8,1,0.8,1.7
	c0,0.7-0.3,1.3-0.8,1.7c-0.5,0.5-1.2,0.7-1.8,0.7C139.4,77.3,138.8,77.2,138.2,76.6z"/>
<path class="st0" d="M131.8,83.3c-0.5-0.4-0.7-1-0.7-1.7s0.3-1.2,0.7-1.7c0.9-0.9,2.5-0.9,3.4,0c0.5,0.4,0.7,1,0.7,1.7
	s-0.3,1.3-0.7,1.7c-0.4,0.5-1,0.7-1.7,0.7C132.9,84.1,132.2,83.9,131.8,83.3z"/>
<path class="st0" d="M124.1,88.3c0-0.7,0.3-1.2,0.7-1.7c0.9-0.9,2.5-0.9,3.4,0c0.5,0.5,0.7,1,0.7,1.7c0,0.7-0.3,1.2-0.7,1.7
	c-0.4,0.4-1,0.7-1.7,0.7s-1.2-0.3-1.7-0.7S124.1,89,124.1,88.3z"/>
<path class="st0" d="M111.6,103.1c-0.4-0.4-0.7-1-0.7-1.7s0.3-1.2,0.7-1.7c0.9-0.9,2.5-0.9,3.4,0c0.5,0.5,0.7,1,0.7,1.7
	s-0.3,1.2-0.7,1.7s-1,0.7-1.7,0.7C112.7,103.9,112.1,103.7,111.6,103.1z"/>
<path class="st0" d="M104.7,109.8c-0.5-0.4-0.8-1-0.8-1.7s0.3-1.2,0.8-1.7c1-0.9,2.6-0.9,3.7,0c0.5,0.5,0.8,1,0.8,1.7
	s-0.3,1.2-0.8,1.7s-1.2,0.7-1.8,0.7C105.8,110.6,105.2,110.3,104.7,109.8z"/>
<path class="st0" d="M98.2,116.6c-0.4-0.4-0.7-1-0.7-1.7s0.3-1.3,0.7-1.7c0.9-0.9,2.5-0.9,3.4,0c0.4,0.4,0.7,1,0.7,1.7
	s-0.3,1.2-0.7,1.7c-0.5,0.5-1,0.7-1.7,0.7S98.8,117,98.2,116.6z"/>
<path class="st0" d="M91.5,123.3c-0.5-0.4-0.7-1-0.7-1.7s0.3-1.2,0.7-1.7c0.9-0.9,2.5-0.9,3.4,0c0.4,0.5,0.7,1,0.7,1.7
	s-0.3,1.3-0.7,1.7c-0.5,0.5-1,0.7-1.7,0.7C92.6,124,91.9,123.8,91.5,123.3z"/>
<path class="st0" d="M84.6,130c-0.5-0.4-0.8-1-0.8-1.7s0.3-1.2,0.8-1.7c1-0.9,2.6-0.9,3.5,0c0.5,0.5,0.8,1,0.8,1.7s-0.3,1.3-0.8,1.7
	s-1.2,0.7-1.8,0.7C85.6,130.7,85,130.5,84.6,130z"/>
<path class="st0" d="M78,136.7c-0.5-0.5-0.7-1-0.7-1.7s0.3-1.2,0.7-1.7c0.9-0.9,2.5-0.9,3.4,0c0.5,0.5,0.7,1,0.7,1.7
	s-0.3,1.2-0.7,1.7c-0.4,0.4-1,0.7-1.7,0.7C79.2,137.5,78.6,137.2,78,136.7z"/>
<path class="st0" d="M81.4,56.4c0.4-0.5,0.7-1,0.7-1.7c0-0.7-0.3-1.2-0.7-1.7c-0.9-0.9-2.5-0.9-3.4,0c-0.5,0.5-0.7,1-0.7,1.7
	c0,0.7,0.3,1.2,0.7,1.7c0.4,0.4,1,0.7,1.7,0.7C80.4,57.2,81,57,81.4,56.4z"/>
<path class="st0" d="M88.1,63.3c0.5-0.5,0.8-1,0.8-1.7s-0.3-1.2-0.8-1.7c-1-0.9-2.6-0.9-3.7,0c-0.5,0.5-0.8,1-0.8,1.7
	s0.3,1.2,0.8,1.7c0.5,0.4,1.2,0.7,1.8,0.7C86.9,63.9,87.6,63.7,88.1,63.3z"/>
<path class="st0" d="M94.9,69.9c0.4-0.4,0.7-1,0.7-1.7c0-0.7-0.3-1.2-0.7-1.7c-0.9-0.9-2.5-0.9-3.4,0c-0.4,0.4-0.7,1-0.7,1.7
	c0,0.7,0.3,1.2,0.7,1.7c0.5,0.5,1,0.7,1.7,0.7C93.8,70.6,94.4,70.3,94.9,69.9z"/>
<path class="st0" d="M101.6,76.6c0.4-0.4,0.7-1,0.7-1.7c0-0.7-0.3-1.2-0.7-1.7c-0.9-0.9-2.5-0.9-3.4,0c-0.4,0.4-0.7,1-0.7,1.7
	c0,0.7,0.3,1.3,0.7,1.7c0.5,0.5,1,0.7,1.7,0.7C100.5,77.3,101.1,77.2,101.6,76.6z"/>
<path class="st0" d="M108.2,83.3c0.5-0.4,0.8-1,0.8-1.7s-0.3-1.2-0.8-1.7c-0.9-0.9-2.6-0.9-3.5,0c-0.5,0.4-0.8,1-0.8,1.7
	s0.3,1.3,0.8,1.7c0.5,0.5,1.2,0.7,1.8,0.7C107.1,84.1,107.8,83.9,108.2,83.3z"/>
<path class="st0" d="M115.7,88.3c0-0.7-0.3-1.2-0.7-1.7c-0.9-0.9-2.5-0.9-3.4,0c-0.5,0.5-0.7,1-0.7,1.7c0,0.7,0.3,1.2,0.7,1.7
	c0.4,0.4,1,0.7,1.7,0.7c0.7,0,1.2-0.3,1.7-0.7S115.7,89,115.7,88.3z"/>
<path class="st0" d="M121.7,96.8c0.5-0.5,0.7-1,0.7-1.7s-0.3-1.2-0.7-1.7c-0.9-0.9-2.5-0.9-3.4,0c-0.5,0.5-0.7,1-0.7,1.7
	s0.3,1.2,0.7,1.7c0.4,0.4,1,0.7,1.7,0.7C120.7,97.5,121.3,97.2,121.7,96.8z"/>
<path class="st0" d="M128.4,103.1c0.5-0.4,0.8-1,0.8-1.7s-0.3-1.2-0.8-1.7c-1-0.9-2.6-0.9-3.5,0c-0.5,0.5-0.8,1-0.8,1.7
	s0.3,1.2,0.8,1.7s1.2,0.7,1.8,0.7C127.2,103.9,127.9,103.7,128.4,103.1z"/>
<path class="st0" d="M135.2,109.8c0.4-0.4,0.7-1,0.7-1.7s-0.3-1.2-0.7-1.7c-0.9-0.9-2.5-0.9-3.4,0c-0.4,0.5-0.7,1-0.7,1.7
	s0.3,1.2,0.7,1.7c0.5,0.5,1,0.7,1.7,0.7C134,110.6,134.7,110.3,135.2,109.8z"/>
<path class="st0" d="M141.9,116.6c0.4-0.4,0.7-1,0.7-1.7s-0.3-1.3-0.7-1.7c-0.9-0.9-2.5-0.9-3.4,0c-0.4,0.4-0.7,1-0.7,1.7
	s0.3,1.2,0.7,1.7c0.5,0.5,1,0.7,1.7,0.7C140.9,117.3,141.4,117,141.9,116.6z"/>
<path class="st0" d="M148.2,123.3c0.5-0.4,0.7-1,0.7-1.7s-0.3-1.2-0.7-1.7c-0.9-0.9-2.5-0.9-3.4,0c-0.4,0.5-0.7,1-0.7,1.7
	s0.3,1.3,0.7,1.7c0.5,0.5,1,0.7,1.7,0.7C147.1,124,147.8,123.8,148.2,123.3z"/>
<path class="st0" d="M155.3,130c0.5-0.4,0.7-1,0.7-1.7s-0.3-1.2-0.7-1.7c-0.9-0.9-2.5-0.9-3.4,0c-0.5,0.5-0.7,1-0.7,1.7
	s0.3,1.3,0.7,1.7c0.4,0.4,1,0.7,1.7,0.7C154.3,130.7,154.9,130.5,155.3,130z"/>
<path class="st0" d="M162,136.7c0.5-0.5,0.8-1,0.8-1.7s-0.3-1.2-0.8-1.7c-1-0.9-2.6-0.9-3.5,0c-0.5,0.5-0.8,1-0.8,1.7
	s0.3,1.2,0.8,1.7c0.5,0.4,1.2,0.7,1.8,0.7C160.8,137.5,161.4,137.2,162,136.7z"/>
<path class="st0" d="M97.3,58.3c6.8-4.5,14.3-6.6,22.6-6.7c8.1,0,15.6,2.2,22.6,6.7l14.4-14.4c-11.3-8.6-23.5-12.9-37-12.9
	S94,35.3,83,43.9L97.3,58.3z"/>
<path class="st0" d="M82.9,117.4c-4.6-7-6.8-14.4-6.8-22.4c0-8.1,2.2-15.6,6.8-22.4L68.6,58.3C60.2,69.3,56,81.5,56,95.1
	c0,13.4,4.2,25.7,12.7,36.9L82.9,117.4z"/>
<path class="st0" d="M142.4,131.7c-6.8,4.6-14.3,7-22.4,7.1c-8.3,0-15.9-2.2-22.7-7l-14.4,14.3c11.1,8.7,23.5,13,37.1,12.9
	c13.5-0.1,25.7-4.5,36.7-12.9L142.4,131.7z"/>
<path class="st0" d="M156.5,72.4c4.6,7,7,14.6,6.8,22.8c-0.1,8-2.4,15.3-6.8,22l14.4,14.3c8.5-11,12.9-23.2,12.9-36.6
	c0.1-13.6-4.2-26-12.9-37.1L156.5,72.4z"/>
<path class="st0" d="M171.5,136.2c5.5,0,10.1,4.5,10.1,10.1c0,5.5-4.5,10.1-10.1,10.1c-5.5,0-10.1-4.5-10.1-10.1
	C161.4,140.7,165.9,136.2,171.5,136.2z"/>
<path class="st0" d="M68.5,136.2c5.5,0,10,4.5,10,10.1c0,5.5-4.5,10.1-10,10.1s-10-4.5-10-10.1C58.5,140.7,63,136.2,68.5,136.2z"/>
<path class="st0" d="M171.7,33.2c5.5,0,10,4.5,10,10.1s-4.5,10.1-10,10.1s-10-4.5-10-10.1S166.2,33.2,171.7,33.2z"/>
<path class="st0" d="M68.3,33.2c5.5,0,10.1,4.5,10.1,10s-4.5,10-10.1,10c-5.5,0-10.1-4.5-10.1-10S62.7,33.2,68.3,33.2z"/>
</svg>
