<?xml version="1.0" encoding="utf-8"?>
<!-- Generator: Adobe Illustrator 25.0.1, SVG Export Plug-In . SVG Version: 6.00 Build 0)  -->
<svg version="1.1" id="katman_1" xmlns="http://www.w3.org/2000/svg" xmlns:xlink="http://www.w3.org/1999/xlink" x="0px" y="0px"
	 viewBox="0 0 560 400" style="enable-background:new 0 0 560 400;" xml:space="preserve">
<style type="text/css">
	.st0{fill:#141927;}
	.st1{fill:#31CB9E;}
</style>
<desc>Created with Sketch.</desc>
<g id="Symbols">
	<g id="Top-Menu-Login">
		<g id="kyber-logo">
			<g id="Group" transform="translate(56.000000, 16.000000)">
				<path id="Shape" class="st0" d="M237.3,178.2c-1,0.6-2.2,0.8-3.6,0.8c-0.5,0-1.6,0-3.3-0.2v5.1c1.6,0.4,3.1,0.6,4.7,0.6
					c2.5,0,4.5-0.7,6.1-1.9c1.7-1.3,3.1-3.2,4.3-5.9l13.9-31.3l-6.6,0.1l-8.4,20.5l-8.2-20.5h-6.6l11.4,26.8l-1.2,2.7
					C239.1,176.5,238.2,177.6,237.3,178.2z"/>
				<path id="Shape_1_" class="st0" d="M269.7,169.7c1,1.4,2.5,2.6,4.1,3.3c1.7,0.8,3.6,1.2,5.8,1.2c4,0,7.3-1.3,9.9-4.2
					c2.6-2.8,4-6.3,4-10.5c0-4.2-1.3-7.7-4-10.5c-2.7-2.8-6-4.2-10-4.2l0.2,0c-4.1,0-7.3,1.3-9.6,4v-18.2H264v42.8h5.7L269.7,169.7
					L269.7,169.7z M272.3,152.8c1.7-1.6,3.7-2.4,6.1-2.4c2.5,0,4.6,0.8,6.3,2.6s2.5,3.9,2.5,6.6c0,2.7-0.8,4.9-2.5,6.7
					c-1.7,1.7-3.6,2.7-6.1,2.7h-0.1c-2.4,0-4.4-0.7-6.1-2.3s-2.5-3.8-2.5-6.8S270.6,154.4,272.3,152.8z"/>
				<path id="Shape_2_" class="st0" d="M215.5,212.2L215.5,212.2c-3.6,0-6.4,1.2-8.6,3.4v-2.8h-5.7v28.2h6.1v-16.8
					c0-1.9,0.6-3.4,1.8-4.7c1.2-1.2,2.8-1.8,4.7-1.8c1.8,0,3.3,0.7,4.5,1.8c1.2,1.2,1.7,2.8,1.7,4.7v16.7h6.1v-17.6
					c0-3.3-0.9-6-2.8-8.1S218.8,212.2,215.5,212.2z"/>
				<path id="Shape_3_" class="st0" d="M246.4,212.2c-4.1,0-7.6,1.4-10.4,4.3s-4.3,6.3-4.3,10.5c0,4.2,1.5,7.7,4.3,10.5
					c2.9,2.8,6.6,4.2,10.9,4.2c4.3,0,8.1-1.5,11.4-4.5l-2.9-4.1c-2.5,2.2-5.3,3.3-8.3,3.3c-2.5,0-4.6-0.7-6.3-2
					c-1.7-1.3-2.7-3.2-3.1-5.5H259c0.5-1.4,0.6-3.8,0.6-3.8c0-3.7-1.3-6.8-3.8-9.3C253.4,213.4,250.2,212.2,246.4,212.2z
					 M237.9,224.2c0.5-2.1,1.5-3.8,3-5c1.5-1.3,3.2-1.9,5.2-1.9c2,0,3.7,0.7,5.1,1.9c1.4,1.3,2.1,2.9,2.1,5H237.9z"/>
				<path id="Shape_4_" class="st0" d="M314.3,174.3c4.3,0,8.1-1.5,11.4-4.5l-2.9-4.1c-2.5,2.2-5.3,3.3-8.3,3.3
					c-2.5,0-4.6-0.7-6.3-2s-2.7-3.2-3.1-5.5h21.2c0.6-1.5,0.6-3.8,0.6-3.8c0-3.7-1.3-6.8-3.8-9.3c-2.5-2.5-5.6-3.7-9.4-3.7
					c-4.1,0-7.6,1.4-10.4,4.3s-4.3,6.3-4.3,10.5c0,4.2,1.5,7.7,4.3,10.5C306.2,172.9,309.9,174.3,314.3,174.3z M308.2,151.9
					c1.5-1.3,3.2-1.9,5.2-1.9c2,0,3.7,0.7,5.1,1.9c1.4,1.3,2.1,2.9,2.1,5h-15.5C305.7,154.8,306.6,153.2,308.2,151.9z"/>
				<path id="Shape_5_" class="st0" d="M279.9,236.1c-1.8,0-3.3-0.3-4.1-1.1c-0.9-0.7-1.4-2-1.4-3.8v-13.2h8.4v-5.2h-8.4v-7.3h-6.1
					v7.3h-4.6v5.2h4.6v13.7c0,3.3,0.9,5.7,2.8,7.3c1.8,1.6,4.4,2.4,7.7,2.4c1.5,0,3.1-0.2,5-0.7v-5.1
					C282.1,236,280.9,236.1,279.9,236.1L279.9,236.1z"/>
				<polygon id="Shape_6_" class="st0" points="321,231 312.2,212.2 310.1,212.2 301.5,231.2 294,212.9 287.6,212.9 300.2,241.5 
					302.3,241.5 311.2,222.9 320.1,241.5 322.2,241.5 334.8,212.9 328.3,212.9 				"/>
				<path id="Shape_7_" class="st0" d="M351.5,212.2c-4.2,0-7.8,1.4-10.7,4.2s-4.3,6.3-4.3,10.4c0,4.1,1.5,7.6,4.3,10.4
					c2.9,2.8,6.4,4.2,10.7,4.3c4.1,0,7.7-1.4,10.7-4.3s4.4-6.3,4.4-10.5c0-4.1-1.5-7.6-4.5-10.4
					C359.2,213.6,355.7,212.3,351.5,212.2z M357.7,233.4c-1.7,1.7-3.8,2.6-6.3,2.6c-2.5,0-4.6-0.8-6.3-2.6c-1.7-1.7-2.5-3.9-2.5-6.5
					c0-2.7,0.8-4.8,2.5-6.5c1.7-1.7,3.8-2.6,6.3-2.7h0c2.5,0,4.6,0.9,6.3,2.6c1.7,1.7,2.5,3.9,2.5,6.5S359.4,231.6,357.7,233.4z"/>
				<path id="Shape_8_" class="st0" d="M386.1,212.6h0.1h0.1H386.1z"/>
				<path id="Shape_9_" class="st0" d="M377.8,216.5v-3.7h-5.7V241h6.1V226c0-2.5,0.8-4.3,2.4-5.7c1.6-1.3,3.5-2,5.9-2h1.8v-5.3
					c-0.7-0.2-1.4-0.3-2.3-0.3C382.7,212.6,379.9,213.9,377.8,216.5z"/>
				<path id="Shape_10_" class="st0" d="M338.6,158.7c0-2.5,0.8-4.3,2.4-5.7c1.6-1.3,3.5-2,5.9-2h1.8v-5.3c-0.7-0.2-1.4-0.3-2.3-0.3
					c-3.5,0-6.3,1.3-8.3,4v-3.7h-5.7v28.1h6.1L338.6,158.7L338.6,158.7z"/>
				<path id="Shape_11_" class="st0" d="M346.4,145.3h0.1h0.1H346.4z"/>
				<rect id="Rectangle-path" x="394" y="198" class="st0" width="6.1" height="43"/>
				<polygon id="Shape_12_" class="st0" points="407.5,225.2 418.9,212.9 411.4,212.9 400.3,225.2 412.7,241 420,241 				"/>
				<polygon id="Shape_13_" class="st0" points="226.2,145.5 218.6,145.5 207.5,157.9 219.9,173.7 227.2,173.7 214.7,157.9 				"/>
				<rect id="Rectangle-path_1_" x="201.3" y="130.7" class="st0" width="6.1" height="43"/>
			</g>
			<path id="Shape_14_" class="st1" d="M145.8,200.5l77.3,44.2c2.7,1.5,6.1-0.4,6.1-3.5v-81.5c0-3.1-3.4-5-6.1-3.5L145.8,200.5z"/>
			<path id="Shape_15_" class="st1" d="M221.3,136.7l-52.8-38.8c-2.5-1.8-6-0.5-6.6,2.4l-19.3,86.4l78.2-43.3
				C223.5,141.9,223.7,138.4,221.3,136.7"/>
			<path id="Shape_16_" class="st1" d="M168.5,303.1l52.8-38.8c2.4-1.8,2.1-5.2-0.4-6.7l-78.2-43.3l19.3,86.4
				C162.5,303.7,166.1,304.9,168.5,303.1"/>
			<path id="Shape_17_" class="st1" d="M125.7,199l20-93.9c0.8-3.7-3.4-6.4-6.3-4.1l-51.2,39.4c-2.6,2-4.2,5.2-4.2,8.5v100
				c0,3.3,1.5,6.5,4.2,8.5l51.2,39.4c3,2.3,7.1-0.4,6.3-4.1L125.7,199z"/>
		</g>
	</g>
</g>
</svg>
