<svg xmlns="http://www.w3.org/2000/svg" xmlns:xlink="http://www.w3.org/1999/xlink" viewBox="0 0 85 85" fill="#fff" fill-rule="evenodd" stroke="#000" stroke-linecap="round" stroke-linejoin="round"><use xlink:href="#A" x="2.5" y="2.5"/><symbol id="A" overflow="visible"><path d="M76.232 54.743H15.189v-3.432l30.521-21.51 30.521 21.51v3.432zM80 80H26.005v-3.404l27.443-18.023L80 76.595V80z" fill="#19486f" stroke="none"/><path d="M26.005 54.743H80v21.853H26.005z" fill="#2e73b8" stroke="none"/><path d="M28.652 58.257h3.84l2.718 10.899h0l2.675-10.899h3.797v14.701h-2.33v-12.23h0l-3.107 12.231h-2.114l-3.107-12.231h0v12.231h-2.373zm23.603 14.496a4.95 4.95 0 0 1-2.416.494c-3.538 0-5.092-2.388-5.092-7.632s1.553-7.646 5.092-7.646 5.092 2.389 5.092 7.646c.117 2.006-.298 4.008-1.208 5.82l1.582 1.592-1.438 1.263zm-1.294-3.844l1.021.975a12.81 12.81 0 0 0 .503-4.324c0-4.942-1.165-5.806-2.632-5.806s-2.704.851-2.704 5.793 1.165 5.93 2.632 5.93a2.51 2.51 0 0 0 .877-.137l-1.165-1.084zm9.55-8.675h-3.668v-1.977h9.723v1.977H62.97v12.725h-2.459zm10.874 0h-3.668v-1.977h9.723v1.977h-3.596v12.725h-2.46z" stroke="none"/><path d="M76.232 51.311V15.923c0-3.32-1.382-6.504-3.842-8.852s-5.796-3.667-9.276-3.667H13.118C5.873 3.404 0 9.009 0 15.923v47.742c0 3.32 1.382 6.504 3.842 8.852s5.797 3.667 9.276 3.667h10.068V51.311z" fill="#19486f" stroke="none"/><path d="M76.232 51.311V12.519c0-3.32-1.382-6.504-3.842-8.852S66.593 0 63.114 0H13.118C5.873 0 0 5.605 0 12.519v47.715c0 3.32 1.382 6.504 3.842 8.852s5.797 3.667 9.276 3.667h10.068V51.311z" fill="#2e73b8" stroke="none"/></symbol></svg>