<?xml version="1.0" encoding="utf-8"?>
<!-- Generator: Adobe Illustrator 25.0.1, SVG Export Plug-In . SVG Version: 6.00 Build 0)  -->
<svg version="1.0" id="katman_1" xmlns="http://www.w3.org/2000/svg" xmlns:xlink="http://www.w3.org/1999/xlink" x="0px" y="0px"
	 viewBox="0 0 560 400" style="enable-background:new 0 0 560 400;" xml:space="preserve">
<style type="text/css">
	.st0{fill-rule:evenodd;clip-rule:evenodd;fill:#222222;}
	.st1{fill-rule:evenodd;clip-rule:evenodd;fill:#FFFFFF;}
</style>
<g transform="matrix(9.375 0 0 9.375 130 50)">
	<circle class="st0" cx="16" cy="16" r="16"/>
	<path class="st1" d="M12.7,18.7l3.1,6.4l1.6-4.8L12.7,18.7 M7,15.9l4.8,1.6l1.6-4.8L7,15.9z M13,17.9c0.1,0,0.1,0.1,0.1,0.1
		c1.5,0.5,3.1,1,4.6,1.6c0.1,0,0.3,0,0.4-0.1c1.8-0.9,3.5-1.7,5.3-2.6c0.5-0.2,1-0.5,1.5-0.8c-0.1,0-0.2-0.1-0.2-0.1
		c-1.5-0.5-3-1-4.5-1.5c-0.2,0-0.3,0-0.5,0c-1.9,0.9-3.7,1.8-5.6,2.8C13.8,17.5,13.4,17.7,13,17.9 M19.5,13.8
		c-1.1-2.3-2.2-4.6-3.4-6.9l-3.5,10.3L19.5,13.8z M5,16c1.1-0.5,2.1-1.1,3.2-1.6c1.8-0.9,3.5-1.7,5.3-2.6c0.2-0.1,0.3-0.2,0.4-0.4
		c0.7-2.1,1.4-4.1,2.1-6.2c0-0.1,0.1-0.2,0.1-0.3c0.1,0.1,0.1,0.2,0.2,0.3c1.3,2.7,2.7,5.5,4,8.2c0.1,0.1,0.2,0.2,0.4,0.3
		c2,0.7,4.1,1.4,6.1,2.1c0.1,0,0.2,0.1,0.3,0.1c-0.2,0.1-0.3,0.2-0.5,0.2c-2.6,1.3-5.3,2.6-7.9,3.9c-0.2,0.1-0.4,0.3-0.5,0.6
		c-0.7,2-1.4,4.1-2.1,6.1c0,0.1,0,0.1-0.1,0.2c-0.2-0.4-0.3-0.7-0.5-1c-1.2-2.5-2.4-5-3.7-7.5c-0.1-0.2-0.2-0.3-0.5-0.4
		c-2-0.7-4.1-1.4-6.1-2.1C5.2,16.1,5.1,16.1,5,16"/>
</g>
</svg>
