<?xml version="1.0" encoding="utf-8"?>
<!-- Generator: Adobe Illustrator 27.0.0, SVG Export Plug-In . SVG Version: 6.00 Build 0)  -->
<svg version="1.1" id="Layer_1" xmlns="http://www.w3.org/2000/svg" xmlns:xlink="http://www.w3.org/1999/xlink" x="0px" y="0px"
	 viewBox="0 0 512 512" style="enable-background:new 0 0 512 512;" xml:space="preserve">
<style type="text/css">
	.st0{fill:#EF2721;}
</style>
<g id="g44912" transform="matrix(1,0,0,-1,198.67829,802.22279)">
</g>
<g id="g47068" transform="matrix(1,0,0,-1,461.18859,855.21799)">
</g>
<g id="g47070" transform="matrix(1,0,0,-1,455.21449,855.21799)">
</g>
<g id="g47072" transform="matrix(1,0,0,-1,452.54669,857.88609)">
</g>
<g id="g47086" transform="matrix(1,0,0,-1,458.20409,858.22119)">
</g>
<g id="g47120" transform="matrix(1,0,0,-1,476.84579,855.22319)">
</g>
<g id="g47122" transform="matrix(1,0,0,-1,470.87129,855.22319)">
</g>
<g id="g47124" transform="matrix(1,0,0,-1,468.20379,857.89129)">
</g>
<g id="g47138" transform="matrix(1,0,0,-1,473.86109,858.22649)">
</g>
<g id="XMLID_1_">
	<polygon id="XMLID_7_" class="st0" points="426.34,346.71 426.48,347.27 427.32,347.55 427.88,347.55 428.3,346.99 428.02,346.57 
		427.46,346.29 427.04,346.29 426.34,346.01 426.06,345.31 426.34,344.46 427.32,344.18 428.3,344.46 428.58,345.31 428.16,345.31 
		428.02,344.88 427.32,344.6 426.62,344.74 426.48,345.17 426.62,345.59 427.32,345.73 427.88,345.87 428.44,346.15 428.72,346.85 
		428.3,347.69 427.32,347.97 426.2,347.69 425.92,346.71 	"/>
	<polygon id="XMLID_8_" class="st0" points="429,347.97 429.56,347.97 429.56,345.73 429.42,345.31 429.42,344.88 429.42,344.88 
		430.55,347.97 430.97,347.97 432.09,344.88 432.09,345.45 432.09,345.73 432.09,347.97 432.51,347.97 432.51,344.18 431.81,344.18 
		430.83,347.41 429.7,344.18 429,344.18 	"/>
	<path id="XMLID_9_" class="st0" d="M166.41,249.41h-0.56c0,0,0.14,9.39,0.14,11.92c-1.54-2.24-8.13-11.92-8.13-11.92h-12.34v0.56
		v24.11h10.09v-0.56c0,0-0.14-8.97-0.14-11.64c3.5,5.05,7.99,11.36,8.27,11.78l0.14,0.28h0.28h11.78v-0.56v-23.97h-0.56h-0.84
		L166.41,249.41L166.41,249.41z"/>
	<polygon id="XMLID_10_" class="st0" points="209.88,249.41 209.88,249.41 187.3,249.41 187.3,273.95 211.7,273.95 211.7,267.22 
		211.14,267.22 198.1,267.08 198.1,264.83 210.44,264.83 210.44,264.27 210.44,258.1 209.88,258.1 198.1,258.1 198.1,256.14 
		211.14,256.14 211.14,255.72 211.14,249.41 	"/>
	<polygon id="XMLID_11_" class="st0" points="247.17,249.41 246.33,249.41 222.07,249.41 222.07,249.97 222.07,256.42 
		222.63,256.42 229.5,256.42 229.5,273.95 240.3,273.95 240.3,256.42 247.73,256.42 247.73,249.41 	"/>
	<path id="XMLID_16_" class="st0" d="M486.34,225.02c0-7.99-4.07-17.24-9.67-21.45c-5.33-4.21-12.62-4.63-21.59-4.63
		c0,0-26.08,0-31.4,0c0,5.05,0,46.41,0,51.59c5.33,0,33.09,0,33.09,0c9.39,0,15.98-2.38,21.45-7.43
		C483.68,237.77,486.34,231.61,486.34,225.02 M346.71,251.93c-4.77-14.58-10.94-32.11-11.22-33.09
		c-0.42,0.98-10.09,28.46-11.92,33.09C328.06,251.93,342.36,251.93,346.71,251.93 M264.41,260.63c0-36.45-30.84-66.03-68.56-66.03
		c-37.85,0-68.56,29.58-68.56,66.03l0,0c0,17.1,6.87,33.51,19.21,45.84c13.04,13.04,30.7,20.19,49.49,20.19s36.31-7.15,49.35-20.33
		C257.68,293.99,264.41,277.73,264.41,260.63 M335.77,160.81c0,0,51.87,128.14,62.53,154.5c0-27.34,0-141.6,0-141.6h58.18
		c12.9,0,26.5,0.84,38.13,11.36c10.8,9.67,17.24,24.25,17.38,38.97v0.28c-0.14,18.37-8.13,29.3-15.98,37.57l-0.14,0.14l-0.14,0.14
		c-12.06,11.08-28.04,13.46-39.26,13.46c0,0-27.34,0-32.67,0c0,5.89,0,72.34,0,72.34h-38.69c0,0-27.06-68.98-28.6-72.9H314.6
		c-1.54,3.93-27.06,72.9-27.06,72.9h-27.62c0,0,7.29-17.38,16.4-41.22c-16.4,26.64-46.27,44.44-80.61,44.44
		c-25.66,0-49.63-9.81-67.43-27.62c-7.99-7.99-14.3-17.24-18.79-27.34c-0.28,13.6-5.89,26.5-15.84,36.45
		c-10.51,10.51-24.81,16.4-39.26,16.4c-23.69,0-43.6-15.14-51.87-39.54L0,301.98l23.41-6.31l1.82,4.77
		c4.21,10.94,12.62,24.11,29.58,24.11c7.71,0,15.14-3.22,20.75-8.83c5.75-5.75,9.11-13.6,9.11-21.45l0,0
		c0-12.34-12.06-18.51-23.83-24.53l-2.94-1.68v0.14l-27.48-15.28l-0.28-0.14H30c-12.62-8.27-19.07-20.05-19.07-34.91
		c0-13.74,4.77-26.08,13.6-35.05c8.41-8.41,20.05-13.18,32.81-13.18c18.09,0,35.33,10.37,43.88,26.64l1.68,3.08l1.12,2.1
		l-23.41,7.01c-6.03-9.39-13.88-14.3-23.69-14.3c-5.33,0-10.37,2.1-14.16,5.89c-4.35,4.35-6.73,10.51-6.73,17.24
		c0,11.64,10.65,17.1,22.01,22.71l1.54,0.7l29.3,15.98l0.28,0.14l0.14,0.14c5.75,3.93,10.37,8.13,13.6,13.04
		c-0.28-3.22-0.56-6.31-0.56-9.53c0-49.91,42.06-90.43,93.79-90.57c25.66,0,49.49,9.81,67.43,27.62
		c16.96,16.96,26.36,39.26,26.36,62.81c0,5.33-0.56,10.65-1.4,15.84C308.85,226.56,335.77,160.81,335.77,160.81"/>
</g>
</svg>
